<svg xmlns="http://www.w3.org/2000/svg" width="1200" height="650" viewBox="0 0 1200 650">
  <defs>
    <marker id="a" viewBox="0 0 10 10" refX="9" refY="5" markerWidth="7" markerHeight="7" orient="auto"><path d="M0 0L10 5L0 10Z" fill="#555b64"/></marker>
    <style>text{font-family:Arial,Helvetica,sans-serif;fill:#303640}.t{font-size:28px;font-weight:700}.h{font-size:20px;font-weight:700}.s{font-size:13px}.stage{fill:#f6f6f6;stroke:#858b94;stroke-width:2}.mark{fill:#fff;stroke:#9aa0a8;stroke-width:1.5}.line{fill:none;stroke:#555b64;stroke-width:2.4;marker-end:url(#a)}.dash{fill:none;stroke:#737982;stroke-width:2;stroke-dasharray:7 6;marker-end:url(#a)}</style>
  </defs>
  <rect width="1200" height="650" fill="#fff"/>
  <text x="40" y="50" class="t">Six capabilities for safety-critical embodied world models</text>
  <text x="40" y="86" class="s">From plausible futures to evidence-backed action</text>
  <path d="M190 120H1050" class="line"/><text x="620" y="106" class="s" text-anchor="middle">increasing decision relevance and safety responsibility</text>
  <rect x="35" y="285" width="120" height="180" rx="7" class="stage"/><text x="95" y="320" class="h" text-anchor="middle">Embodied</text><text x="95" y="344" class="h" text-anchor="middle">world</text><rect x="58" y="370" width="74" height="36" class="mark"/><rect x="58" y="418" width="74" height="26" class="mark"/><path d="M155 375H175" class="line"/>
  <g text-anchor="middle">
    <rect x="175" y="265" width="135" height="235" rx="7" class="stage"/><text x="242" y="300" class="h">Generation</text><rect x="203" y="330" width="78" height="56" class="mark"/><text x="242" y="425" class="s">Plausible</text><text x="242" y="443" class="s">futures</text>
    <rect x="322" y="243" width="135" height="257" rx="7" class="stage"/><text x="389" y="278" class="h">Modeling</text><rect x="350" y="312" width="78" height="74" class="mark"/><text x="389" y="425" class="s">State +</text><text x="389" y="443" class="s">dynamics</text>
    <rect x="469" y="221" width="135" height="279" rx="7" class="stage"/><text x="536" y="256" class="h">Understanding</text><rect x="497" y="290" width="78" height="96" class="mark"/><text x="536" y="425" class="s">Relations +</text><text x="536" y="443" class="s">constraints</text>
    <rect x="616" y="199" width="135" height="301" rx="7" class="stage"/><text x="683" y="234" class="h">Reasoning</text><rect x="644" y="268" width="78" height="118" class="mark"/><text x="683" y="425" class="s">Compare</text><text x="683" y="443" class="s">consequences</text>
    <rect x="763" y="177" width="135" height="323" rx="7" class="stage"/><text x="830" y="212" class="h">Decision</text><rect x="791" y="246" width="78" height="140" class="mark"/><text x="830" y="425" class="s">Select · Defer</text><text x="830" y="443" class="s">Reject</text>
    <rect x="910" y="155" width="135" height="345" rx="7" class="stage"/><text x="977" y="190" class="h">Verification</text><rect x="938" y="224" width="78" height="162" class="mark"/><text x="977" y="425" class="s">Evidence +</text><text x="977" y="443" class="s">assurance</text>
  </g>
  <path d="M310 382H322M457 371H469M604 360H616M751 349H763M898 338H910" class="line"/>
  <rect x="1080" y="245" width="90" height="180" rx="7" class="stage"/><text x="1125" y="288" class="h" text-anchor="middle">Safe</text><text x="1125" y="312" class="h" text-anchor="middle">action</text><path d="M1045 335H1080" class="line"/><rect x="1100" y="345" width="50" height="50" class="mark"/>
  <path d="M1125 425V550H830V500" class="dash"/><text x="978" y="540" class="s" text-anchor="middle">verified execution feedback</text>
</svg>
